<?xml version="1.0" encoding="utf-8"?>
<!-- Generator: Adobe Illustrator 26.3.1, SVG Export Plug-In . SVG Version: 6.00 Build 0)  -->
<svg version="1.1" id="layer" xmlns="http://www.w3.org/2000/svg" xmlns:xlink="http://www.w3.org/1999/xlink" x="0px" y="0px"
	 viewBox="0 0 783.5 332.9" style="enable-background:new 0 0 783.5 332.9;" xml:space="preserve">
<style type="text/css">
	.st0{fill:#1D1D1B;}
	.st1{fill:none;stroke:#1D1D1B;stroke-width:5.0036;stroke-miterlimit:10;}
	
		.st2{clip-path:url(#SVGID_00000128462694066175111540000003865837084089967502_);fill:none;stroke:#1D1D1B;stroke-width:5.0036;stroke-miterlimit:10;}
	.st3{fill:#FFFFFF;}
	.st4{fill:#FDC736;}
	
		.st5{clip-path:url(#SVGID_00000034088678658477246820000000477786859423673524_);fill:none;stroke:#1D1D1B;stroke-width:5.0036;stroke-miterlimit:10;}
	
		.st6{clip-path:url(#SVGID_00000155856691456296099870000015851969929526032563_);fill:none;stroke:#1D1D1B;stroke-width:5.0036;stroke-miterlimit:10;}
</style>
<g>
	<path class="st0" d="M364.9,141.1c11.3,0,20.2,8.7,20.2,20.1c0,6.3-3,11.9-8.2,15.7c4.2,2.1,5.8,3.1,8.2,5.6
		c4.1,4.4,6.3,9.7,6.3,15.5c0,13.7-9.2,22-24.2,22h-36.4v-79H364.9z M351.8,171.3h5.7c4.6,0,7.9-2.9,7.9-6.8c0-4.2-3-6.8-8-6.8h-5.6
		V171.3z M351.8,203.5h6.9c7,0,11-2.8,11-7.8c0-4.6-3.9-7.9-9.2-7.9h-8.7V203.5z"/>
	<path class="st0" d="M462.8,203.1c-1.5,4.4-2.5,6.1-4.7,8.5c-6.1,6.7-15,10.3-25.6,10.3c-20.1,0-32.5-11.1-32.5-29.3
		c0-17.7,12.7-28.7,33.2-28.7c13,0,23.9,6.5,27.9,16.7c1.6,3.9,2.2,8,2.2,14.2v1.6h-43.8c0.5,7.8,5.4,13.1,12.5,13.1
		c4.7,0,7.6-1.8,9.9-6.3H462.8z M443.9,185.2c-0.7-5.8-5.8-10.3-11.7-10.3c-6.5,0-11.5,4.1-12.2,10.3H443.9z"/>
	<path class="st0" d="M534.2,203.1c-1.5,4.4-2.5,6.1-4.7,8.5c-6.1,6.7-15,10.3-25.6,10.3c-20.1,0-32.5-11.1-32.5-29.3
		c0-17.7,12.7-28.7,33.2-28.7c13,0,23.9,6.5,27.9,16.7c1.6,3.9,2.2,8,2.2,14.2v1.6h-43.8c0.5,7.8,5.4,13.1,12.5,13.1
		c4.7,0,7.6-1.8,9.9-6.3H534.2z M515.3,185.2c-0.7-5.8-5.8-10.3-11.7-10.3c-6.5,0-11.5,4.1-12.2,10.3H515.3z"/>
	<path class="st0" d="M582.8,141.1c16.2,0,25.3,9.3,25.3,25.8c0,17.3-9.1,26.6-25.8,26.6H568v26.5h-21.1v-79H582.8z M568,175.3h8.4
		c5.7,0,9.6-3.1,9.6-7.9c0-5-3.5-8.7-7.9-8.7H568V175.3z"/>
	<path class="st0" d="M661,185c-4.8-1.1-7-1.5-9.8-1.5c-9.1,0-14.2,4-14.2,11.1v25.4h-20v-54.4h20v8h0.2c3.1-4.1,4.6-5.6,7.4-7.3
		s6.2-2.5,9.7-2.5c1.7,0,3.4,0.1,6.7,0.7V185z"/>
	<path class="st0" d="M730.6,192.8c0,16.2-14,29.1-31.7,29.1s-32.2-12.6-32.2-28.1c0-17,13.7-29.9,31.4-29.9h0.7
		C717.2,164.4,730.6,176.5,730.6,192.8z M686.8,193c0,6.4,5.4,11.9,11.7,11.9c6.8,0,12-5.4,12-12.4c0-6.2-5.4-11.6-11.6-11.6
		C692.2,180.9,686.8,186.2,686.8,193z"/>
</g>
<polygon class="st0" points="191.3,101.9 145.8,101.9 123.1,141.3 145.8,180.6 191.3,180.6 214,141.3 "/>
<polygon class="st1" points="191.3,101.9 145.8,101.9 123.1,141.3 145.8,180.6 191.3,180.6 214,141.3 "/>
<g>
	<defs>
		<rect id="SVGID_1_" x="51.9" y="61.2" width="683.1" height="200.7"/>
	</defs>
	<clipPath id="SVGID_00000070103824061360679050000003213722579513843902_">
		<use xlink:href="#SVGID_1_"  style="overflow:visible;"/>
	</clipPath>
	
		<polyline style="clip-path:url(#SVGID_00000070103824061360679050000003213722579513843902_);fill:none;stroke:#1D1D1B;stroke-width:5.0036;stroke-miterlimit:10;" points="
		123.1,62.5 145.8,101.9 191.3,101.9 214,62.5 	"/>
</g>
<polygon class="st3" points="259.5,141.3 214,141.3 191.3,180.6 214,220 259.5,220 282.3,180.6 "/>
<polygon class="st1" points="259.5,141.3 214,141.3 191.3,180.6 214,220 259.5,220 282.3,180.6 "/>
<polygon class="st4" points="191.3,180.6 145.8,180.6 123.1,220 145.8,259.4 191.3,259.4 214,220 "/>
<g>
	<defs>
		<rect id="SVGID_00000044166602313103159870000008603145385914725042_" x="51.9" y="61.2" width="683.1" height="200.7"/>
	</defs>
	<clipPath id="SVGID_00000152953155523784096850000008445529321625518494_">
		<use xlink:href="#SVGID_00000044166602313103159870000008603145385914725042_"  style="overflow:visible;"/>
	</clipPath>
	
		<polygon style="clip-path:url(#SVGID_00000152953155523784096850000008445529321625518494_);fill:none;stroke:#1D1D1B;stroke-width:5.0036;stroke-miterlimit:10;" points="
		191.3,180.6 145.8,180.6 123.1,220 145.8,259.4 191.3,259.4 214,220 	"/>
</g>
<polygon class="st3" points="123,141.3 77.5,141.3 54.8,180.6 77.5,220 123,220 145.7,180.6 "/>
<g>
	<defs>
		<rect id="SVGID_00000156584608682219904050000007656462834870454695_" x="51.9" y="61.2" width="683.1" height="200.7"/>
	</defs>
	<clipPath id="SVGID_00000160892407613385168600000009902650774128259516_">
		<use xlink:href="#SVGID_00000156584608682219904050000007656462834870454695_"  style="overflow:visible;"/>
	</clipPath>
	
		<polygon style="clip-path:url(#SVGID_00000160892407613385168600000009902650774128259516_);fill:none;stroke:#1D1D1B;stroke-width:5.0036;stroke-miterlimit:10;" points="
		123,141.3 77.5,141.3 54.8,180.6 77.5,220 123,220 145.7,180.6 	"/>
</g>
<path class="st1" d="M133.6,239.7h69.9 M133.6,200.3h69.9 M123.1,220h91"/>
</svg>
